<svg xmlns="http://www.w3.org/2000/svg" width="93" height="93" viewBox="0 0 93 93">
  <g id="Group_2014" data-name="Group 2014" transform="translate(-3701 -597)">
    <circle id="Ellipse_49" data-name="Ellipse 49" cx="46.5" cy="46.5" r="46.5" transform="translate(3701 597)" fill="#49ba7b"/>
    <g id="report-svgrepo-com" transform="translate(3655.687 616)">
      <g id="Group_2012" data-name="Group 2012" transform="translate(72.313)">
        <g id="Group_2011" data-name="Group 2011" transform="translate(0)">
          <path id="Path_79349" data-name="Path 79349" d="M110.077,4.028H99.894V1.08A1.08,1.08,0,0,0,98.814,0H84.656a1.08,1.08,0,0,0-1.08,1.08V4.028H73.393a1.08,1.08,0,0,0-1.08,1.08V54.2a1.08,1.08,0,0,0,1.08,1.08h36.684a1.08,1.08,0,0,0,1.08-1.08V5.107A1.08,1.08,0,0,0,110.077,4.028ZM85.735,2.159h12V8.382h-12ZM109,53.121H74.472V6.187h9.1V9.462a1.08,1.08,0,0,0,1.08,1.08H98.814a1.08,1.08,0,0,0,1.08-1.08V6.187H109Z" transform="translate(-72.313)" fill="#fff" stroke="#fff" stroke-width="0.4"/>
          <path id="Path_79350" data-name="Path 79350" d="M123.2,124.755h16.655a1.08,1.08,0,0,0,0-2.159H123.2a1.08,1.08,0,1,0,0,2.159Z" transform="translate(-116.458 -108.663)" fill="#fff" stroke="#fff" stroke-width="0.4"/>
          <path id="Path_79351" data-name="Path 79351" d="M148.888,171.443H123.2a1.08,1.08,0,0,0,0,2.159h25.69a1.08,1.08,0,0,0,0-2.159Z" transform="translate(-116.458 -151.958)" fill="#fff" stroke="#fff" stroke-width="0.4"/>
          <path id="Path_79352" data-name="Path 79352" d="M148.888,220.291H123.2a1.08,1.08,0,1,0,0,2.159h25.69a1.08,1.08,0,0,0,0-2.159Z" transform="translate(-116.458 -195.254)" fill="#fff" stroke="#fff" stroke-width="0.4"/>
          <path id="Path_79353" data-name="Path 79353" d="M148.888,266.264H123.2a1.08,1.08,0,0,0,0,2.159h25.69a1.08,1.08,0,0,0,0-2.159Z" transform="translate(-116.458 -236.002)" fill="#fff" stroke="#fff" stroke-width="0.4"/>
          <path id="Path_79354" data-name="Path 79354" d="M317.629,124.755h3.592a1.08,1.08,0,1,0,0-2.159h-3.592a1.08,1.08,0,1,0,0,2.159Z" transform="translate(-288.791 -108.663)" fill="#fff" stroke="#fff" stroke-width="0.4"/>
          <path id="Path_79355" data-name="Path 79355" d="M197.942,333.618a1.08,1.08,0,0,0-.32-.767l-4.117-4.075a1.08,1.08,0,0,0-1.485-.032,6.808,6.808,0,0,0-.216,9.9,1.08,1.08,0,0,0,1.519,0l4.3-4.256A1.08,1.08,0,0,0,197.942,333.618Zm-5.294,2.652a4.642,4.642,0,0,1,.144-5.161l2.535,2.509Z" transform="translate(-176.425 -291.132)" fill="#fff" stroke="#fff" stroke-width="0.4"/>
          <path id="Path_79356" data-name="Path 79356" d="M263.025,317.113h0a6.95,6.95,0,0,0-9.546-.2,1.079,1.079,0,0,0-.034,1.567l3.342,3.308-3.525,3.489a1.08,1.08,0,0,0,0,1.535,6.921,6.921,0,0,0,11.79-4.847,6.775,6.775,0,0,0-2.028-4.847Zm-7.151.727a4.81,4.81,0,0,1,4.768.129l-2.319,2.3Zm2.27,8.809a4.762,4.762,0,0,1-2.5-.7l4.275-4.231,2.258-2.235a4.615,4.615,0,0,1,.714,2.475A4.725,4.725,0,0,1,258.144,326.65Z" transform="translate(-232.414 -279.298)" fill="#fff" stroke="#fff" stroke-width="0.4"/>
          <path id="Path_79357" data-name="Path 79357" d="M210.9,34.2H207.23a1.08,1.08,0,0,0,0,2.159H210.9a1.08,1.08,0,1,0,0-2.159Z" transform="translate(-190.939 -30.313)" fill="#fff" stroke="#fff" stroke-width="0.4"/>
        </g>
      </g>
    </g>
  </g>
</svg>
