<svg xmlns="http://www.w3.org/2000/svg" xmlns:xlink="http://www.w3.org/1999/xlink" width="32" height="32" viewBox="0 0 32 32">
  <defs>
    <clipPath id="clip-favicon">
      <rect width="32" height="32"/>
    </clipPath>
  </defs>
  <g id="favicon" clip-path="url(#clip-favicon)">
    <g id="Group_2047" data-name="Group 2047" transform="translate(-7876 2207)">
      <g id="Group_2010" data-name="Group 2010" transform="translate(7876 -2207)">
        <circle id="Ellipse_50" data-name="Ellipse 50" cx="16" cy="16" r="16" fill="#026dbf"/>
      </g>
      <g id="Group_2046" data-name="Group 2046" transform="translate(7876 -2196.069)">
        <path id="Path_79481" data-name="Path 79481" d="M17.168,39.015C24.171,46.018,32,28,32,36.837a16,16,0,0,1-32,0C0,28,10.165,32.012,17.168,39.015Z" transform="translate(0 -31.768)" fill="#2a9eea"/>
      </g>
      <path id="Path_79482" data-name="Path 79482" d="M8276.473-1989.621h-3.035V-2004.6h5.041l4.161,11.81,4.269-11.81h5.184v14.983h-3.241v-11.07l-4.269,11.07H8280.7l-4.227-11.424Z" transform="translate(-390.43 -193.693)" fill="#026dbf"/>
      <path id="Path_79480" data-name="Path 79480" d="M8276.354-1990.209h-2.916v-14.4h4.843l4,11.346,4.1-11.346h4.98v14.4h-3.114v-10.635l-4.1,10.635h-3.73l-4.061-10.975Z" transform="translate(-390.43 -193.693)" fill="#f5f5f5"/>
    </g>
  </g>
</svg>
