<svg xmlns="http://www.w3.org/2000/svg" width="94" height="93" viewBox="0 0 94 93">
  <g id="Group_2015" data-name="Group 2015" transform="translate(-3185 -597)">
    <g id="Group_2008" data-name="Group 2008" transform="translate(1034 -944)">
      <ellipse id="Ellipse_48" data-name="Ellipse 48" cx="47" cy="46.5" rx="47" ry="46.5" transform="translate(2151 1541)" fill="#8c60bd"/>
    </g>
    <g id="touch" transform="translate(3213 615.016)">
      <path id="Path_79358" data-name="Path 79358" d="M12.178,36.888a1.433,1.433,0,0,1-.169-.105c-.682-.54-1.433-1.149-2.079-1.676-.943-.774-2.028-1.667-2.788-2.3a3.969,3.969,0,0,0-1.662-.838,1.783,1.783,0,0,0-.943.037.977.977,0,0,0-.5.517,3.248,3.248,0,0,0-.192,1.511,5.875,5.875,0,0,0,.517,1.873,11.746,11.746,0,0,0,1.369,2.307.361.361,0,0,1,.064.105l8.168,11.666a.986.986,0,0,1,.179.49A7.448,7.448,0,0,0,15,53.471a1.341,1.341,0,0,0,1.2.682H29.054a3.84,3.84,0,0,0,2.193-.71,6.986,6.986,0,0,0,2-2.349.35.35,0,0,0,.037-.05c.233-.4.54-.916.838-1.406,1.3-2.143,2.44-4.015,2.568-6.671l-.078-3.663a.6.6,0,0,1-.014-.156c0-.05,0-.4.014-.865.027-2.427.064-5.421-2.156-5.792H33.024c-.014.682-.05,1.383-.092,2.051-.037.6-.078,1.172-.078,1.731a1.071,1.071,0,0,1-2.143,0c0-.554.037-1.2.078-1.873.142-2.285.311-4.9-1.511-5.224H27.859a1.353,1.353,0,0,1-.233-.027c.014.824-.037,1.676-.092,2.5-.027.6-.064,1.172-.064,1.726a1.071,1.071,0,0,1-2.143,0c0-.554.037-1.2.078-1.873.142-2.285.311-4.9-1.511-5.224H22.475a1.12,1.12,0,0,1-.284-.037v4.166a1.071,1.071,0,1,1-2.143,0V19.224c0-1.873-.76-3.058-1.74-3.548a2.481,2.481,0,0,0-1.122-.27,2.542,2.542,0,0,0-1.122.27c-.966.49-1.717,1.676-1.717,3.6v19.6a1.071,1.071,0,0,1-2.143,0V36.888h-.027Zm5.81-30.483a1.273,1.273,0,1,1-2.546,0V1.273a1.273,1.273,0,0,1,2.546,0V6.405ZM6.405,16.917a1.273,1.273,0,1,1,0,2.546H1.273a1.273,1.273,0,0,1,0-2.546Zm3.631-7.609a1.272,1.272,0,1,1-1.8,1.8L4.62,7.476a1.272,1.272,0,0,1,1.8-1.8l3.617,3.631ZM26.77,19.458a1.273,1.273,0,0,1,0-2.546H31.9a1.273,1.273,0,0,1,0,2.546Zm-1.831-8.63a1.272,1.272,0,0,1-1.8-1.8L26.756,5.4a1.272,1.272,0,0,1,1.8,1.8l-3.617,3.631ZM22.191,24.169a.946.946,0,0,1,.284-.037h1.483a1.406,1.406,0,0,1,.243.027,3.612,3.612,0,0,1,3.228,2.953,1.114,1.114,0,0,1,.453-.105h1.483a1.406,1.406,0,0,1,.243.027A3.665,3.665,0,0,1,32.9,30.327a.651.651,0,0,1,.169-.014h1.483a1.513,1.513,0,0,1,.247.027c4.079.632,4.024,4.684,3.988,7.948v.852l.092,3.768v.114c-.156,3.214-1.419,5.293-2.875,7.692-.247.4-.49.81-.824,1.383-.014.014-.014.027-.027.037a9.107,9.107,0,0,1-2.646,3.045,5.942,5.942,0,0,1-3.393,1.085H16.267a3.366,3.366,0,0,1-3.008-1.625,8.6,8.6,0,0,1-1.186-3.663l-8-11.441L4.034,39.5a14.683,14.683,0,0,1-1.612-2.724,8.037,8.037,0,0,1-.7-2.6A5.274,5.274,0,0,1,2.1,31.65a3.011,3.011,0,0,1,1.667-1.625,3.692,3.692,0,0,1,2.156-.156A6.034,6.034,0,0,1,8.543,31.16c.646.54,1.731,1.419,2.788,2.285l.879.723V19.289c0-2.852,1.264-4.684,2.9-5.512a4.589,4.589,0,0,1,4.18,0c1.639.824,2.93,2.669,2.93,5.471v4.926l-.032,0Z" fill="#fff"/>
    </g>
  </g>
</svg>
