<svg xmlns="http://www.w3.org/2000/svg" width="93" height="93" viewBox="0 0 93 93">
  <g id="Group_2000" data-name="Group 2000" transform="translate(-3177 -1541)">
    <circle id="Ellipse_50" data-name="Ellipse 50" cx="46.5" cy="46.5" r="46.5" transform="translate(3177 1541)" fill="#ff8d52"/>
    <g id="_2703068_call_phone_contact_telephone_icon" data-name="2703068_call_phone_contact_telephone_icon" transform="translate(3198.997 1565.825)">
      <path id="Path_79258" data-name="Path 79258" d="M32.009,25.628a1.813,1.813,0,0,0-1.323.521l-2.658,2.66a.685.685,0,0,1-.4.077c-1.464,0-4.574-1.629-7.685-4.742-4.182-4.18-5.1-7.643-4.665-8.082l2.66-2.658c1.753-1.753-1.349-5.379-3.354-7.384-.91-.91-4.033-3.876-6.059-3.876a1.813,1.813,0,0,0-1.323.521L1.886,7.986C.291,9.582.859,12.68,3.58,17.195a71.655,71.655,0,0,0,10.456,12.86c6.49,6.49,15.089,13.039,19.672,13.039h0a3.25,3.25,0,0,0,2.4-.889l5.319-5.319c1.753-1.751-1.349-5.377-3.354-7.382C37.16,28.594,34.037,25.628,32.009,25.628ZM34.2,40.3a.816.816,0,0,1-.5.1c-2.675,0-9.814-4.294-17.772-12.251A69.013,69.013,0,0,1,5.881,15.809c-2.5-4.155-2.289-5.728-2.094-5.923L8.761,4.912a14.7,14.7,0,0,1,3.926,3.009A14.713,14.713,0,0,1,15.7,11.847l-2.315,2.315c-2.479,2.483.681,7.9,4.665,11.882,3.408,3.41,7.081,5.529,9.585,5.529a3.128,3.128,0,0,0,2.3-.864l2.315-2.315A14.713,14.713,0,0,1,36.169,31.4a14.725,14.725,0,0,1,3.009,3.926Z" transform="translate(0 0.907)" fill="#fff"/>
      <path id="Path_79259" data-name="Path 79259" d="M27.907,5.539A15.4,15.4,0,0,0,16.942,1h0a1.344,1.344,0,0,0,0,2.688h0a12.808,12.808,0,0,1,12.816,12.82,1.344,1.344,0,1,0,2.688,0A15.4,15.4,0,0,0,27.907,5.539Z" transform="translate(11.552)" fill="#fff"/>
      <path id="Path_79260" data-name="Path 79260" d="M15.949,6.653h0a9.265,9.265,0,0,1,9.275,9.279,1.344,1.344,0,0,0,2.688,0A11.954,11.954,0,0,0,15.953,3.966h0a1.344,1.344,0,0,0,0,2.688Z" transform="translate(10.768 2.348)" fill="#fff"/>
      <path id="Path_79261" data-name="Path 79261" d="M14.96,9.619h0A5.729,5.729,0,0,1,20.7,15.356a1.344,1.344,0,1,0,2.688,0,8.417,8.417,0,0,0-8.421-8.425h0a1.344,1.344,0,0,0,0,2.688Z" transform="translate(9.985 4.696)" fill="#fff"/>
    </g>
  </g>
</svg>
